<?xml version="1.0" encoding="UTF-8"?>
<svg id="Layer_1" data-name="Layer 1" xmlns="http://www.w3.org/2000/svg" viewBox="0 0 4165.33 1000">
  <defs>
    <style>
      .cls-1 {
        fill: #878787;
      }

      .cls-1, .cls-2, .cls-3, .cls-4, .cls-5, .cls-6 {
        stroke-width: 0px;
      }

      .cls-2 {
        fill: #588157;
      }

      .cls-3 {
        fill: #dad7cd;
      }

      .cls-4 {
        fill: #d4d4d4;
      }

      .cls-5 {
        fill: #a3b18a;
      }

      .cls-6 {
        fill: #ebbc4e;
      }
    </style>
  </defs>
  <g>
    <path class="cls-3" d="m872.49,590.1l-80.72-133.49,80.61-133.6c3.82-6.29,3.82-14.03,0-20.32l-86.79-143.71c-3.59-5.84-9.88-9.54-16.84-9.54h-143.71c-6.85,0-13.25,3.59-16.84,9.54l-81.06,134.17h-132.59c-6.85,0-13.25,3.59-16.84,9.54l-81.06,134.17h-132.59c-6.85,0-13.25,3.59-16.84,9.54l-86.79,143.71c-3.82,6.29-3.82,14.03,0,20.32l86.79,143.71c3.59,5.84,9.88,9.54,16.84,9.54h132.71l59.74,99.02v.49l20.87,34.54c2.28,3.78,5.69,6.59,9.63,8.15,2.34.97,4.89,1.5,7.55,1.5h109.69v-.11h33.68c6.96,0,13.25-3.7,16.84-9.54l54.64-90.48h.25l26.28-43.57h80.72v-.13h52.09c6.96,0,13.25-3.7,16.84-9.54l86.79-143.71c3.79-6.24,3.81-13.91.08-20.17h.04Z"/>
    <path class="cls-5" d="m911.9,550.69l-80.72-133.49,80.61-133.6c3.82-6.29,3.82-14.03,0-20.32l-86.79-143.71c-3.59-5.84-9.88-9.54-16.84-9.54h-143.71c-6.85,0-13.25,3.59-16.84,9.54l-81.06,134.17h-132.59c-6.85,0-13.25,3.59-16.84,9.54l-81.06,134.17h-132.59c-6.85,0-13.25,3.59-16.84,9.54l-86.79,143.71c-3.82,6.29-3.82,14.03,0,20.32l86.79,143.71c3.59,5.84,9.88,9.54,16.84,9.54h132.71l59.74,99.02v.49l20.87,34.54c2.28,3.78,5.69,6.59,9.63,8.15,2.34.97,4.89,1.5,7.55,1.5h109.69v-.11h33.68c6.96,0,13.25-3.7,16.84-9.54l54.64-90.48h.25l26.28-43.57h80.72v-.13h52.09c6.96,0,13.25-3.7,16.84-9.54l86.79-143.71c3.79-6.24,3.81-13.91.08-20.17h.04Z"/>
    <path class="cls-6" d="m896.05,335.58l55.14-91.39c3.52-5.8,3.75-12.83.78-18.82l22.67-39.68-83.39-129.95h-153.62v14.87h-33.77c-6.85,0-13.25,3.59-16.84,9.54l-81.06,134.17h-132.59c-6.85,0-13.25,3.59-16.84,9.54l-81.06,134.17h-132.59c-6.85,0-13.25,3.59-16.84,9.54l-86.79,143.71c-3.82,6.29-3.82,14.03,0,20.32l86.79,143.71c3.59,5.84,9.88,9.54,16.84,9.54h132.71l59.74,99.02v.49l20.87,34.54c2.28,3.78,5.69,6.59,9.63,8.15,2.34.97,4.89,1.5,7.55,1.5h109.69v-.11h25.42l13.58,107.77,48.28,7.32,9.39-36.15,8.26-178.56.24-.4h.25l22.61-37.49,4.18-6.09h80.21v-.13h15.49l4.38,167.76,40.79,15.49,32.19-26.85-1.46-193.12,64.33-116.53h0s0-.01,0-.02l23.44-42.46-78.59-153.42Z"/>
    <path class="cls-2" d="m990.71,471.88l-80.72-133.49,80.61-133.6c3.82-6.29,3.82-14.03,0-20.32l-86.79-143.71c-3.59-5.84-9.88-9.54-16.84-9.54h-143.71c-6.85,0-13.25,3.59-16.84,9.54l-81.06,134.17h-132.59c-6.85,0-13.25,3.59-16.84,9.54l-81.06,134.17h-132.59c-6.85,0-13.25,3.59-16.84,9.54l-86.79,143.71c-3.82,6.29-3.82,14.03,0,20.32l86.79,143.71c3.59,5.84,9.88,9.54,16.84,9.54h132.71l80.95,134.17c3.59,5.95,9.88,9.54,16.84,9.54h70.28v118.22c0,33.91,27.62,61.41,61.41,61.41,16.17,0,32.11-6.51,43.45-17.96,11.56-11.56,17.96-27.06,17.96-43.45v-181.88l48.28-80.05h41.09v190.75c0,30.65,24.92,55.57,55.57,55.57,15.04,0,29.08-5.84,39.3-16.28,10.55-10.55,16.28-24.48,16.28-39.3v-204.9l83.98-138.99c3.82-6.29,3.82-14.03,0-20.32l.34-.11Zm-123.27,153.93v210.4c0,4.27-1.68,8.42-4.94,11.68-2.92,3.03-6.96,4.6-11.34,4.6-8.98,0-16.28-7.3-16.28-16.28v-210.4c0-10.89-8.76-19.65-19.65-19.65h-60.74l-74.89-124.06,74.89-124.06h121.59l75,124.06-80.72,133.6c-1.91,3.03-2.81,6.62-2.81,10.1h-.11Zm-200.63,94.2v187.27c0,5.95-2.25,11.56-6.51,15.72-4.15,4.15-9.88,6.51-15.72,6.51-12.24,0-22.12-9.88-22.12-22.12v-137.87c0-10.89-8.76-19.65-19.65-19.65h-78.82l-74.89-124.06,74.89-124.06h121.48l74.89,124.06-50.75,84.09c-1.91,3.03-2.81,6.62-2.81,10.1h0ZM876.08,70.5l74.89,124.06-74.89,124.06h-121.48l-74.89-124.06,74.89-124.06s121.48,0,121.48,0Zm-230.49,143.71l64,106.1,10.78,17.96-74.89,124.06h-121.48l-74.89-124.06,74.89-124.06h121.59Zm-230.49,143.71l74.89,124.06-74.89,124.06h-121.48l-74.89-124.06,74.89-124.06h121.48Z"/>
  </g>
  <g>
    <g>
      <path class="cls-4" d="m1257.51,578.51h-54.69c-1.26,0-1.88-.79-1.88-2.36l.94-331.68c0-1.26.62-1.89,1.88-1.89h97.6c17.44,0,33.47,4.25,48.09,12.73,14.61,8.49,26.28,19.88,35,34.18,8.72,14.3,13.09,30.49,13.09,48.56,0,11.79-1.81,22.47-5.43,32.06-3.62,9.59-7.82,17.68-12.61,24.28-4.79,6.6-9.16,11.47-13.08,14.61,17.44,19.33,26.17,42.04,26.17,68.13l.47,99.01c0,1.57-.79,2.36-2.36,2.36h-54.69c-1.26,0-1.88-.47-1.88-1.42v-99.95c0-11.63-4.09-21.69-12.26-30.17-8.17-8.48-18.23-12.73-30.18-12.73h-31.82l-.47,141.91c0,1.57-.63,2.36-1.89,2.36Zm43.85-278.17h-41.49v75.91h41.49c9.9,0,18.74-3.69,26.52-11.08,7.78-7.39,11.67-16.42,11.67-27.11s-3.77-19.06-11.31-26.52c-7.54-7.46-16.5-11.2-26.87-11.2Z"/>
      <path class="cls-4" d="m1591.55,578.51h-156.06c-1.26,0-1.88-.79-1.88-2.36l.47-331.68c0-1.26.63-1.89,1.89-1.89h155.11c1.26,0,1.89.79,1.89,2.36v53.98c0,1.26-.63,1.89-1.89,1.89h-99v75.43h99c1.26,0,1.89.63,1.89,1.89l.47,54.69c0,1.26-.63,1.88-1.89,1.88h-99.48v84.39h99.48c1.25,0,1.89.79,1.89,2.36v55.16c0,1.26-.63,1.89-1.89,1.89Z"/>
      <path class="cls-4" d="m1620.07,576.15l59.87-331.68c.32-1.26,1.1-1.89,2.36-1.89h70.01c1.25,0,2.04.63,2.36,1.89l57.52,331.68c.16,1.57-.47,2.36-1.89,2.36h-53.51c-1.57,0-2.44-.79-2.59-2.36l-5.19-35.36h-65.77l-5.19,35.36c-.16,1.57-.94,2.36-2.36,2.36h-53.74c-1.26,0-1.89-.79-1.89-2.36Zm99.48-222.53l-2.83-17.92-2.12,17.92-21.69,135.55h46.44l-19.8-135.55Z"/>
      <path class="cls-4" d="m1931.23,583.23c-17.44,0-33.39-4.4-47.85-13.2-14.3-8.8-25.66-20.63-34.06-35.48-8.41-14.85-12.61-31.39-12.61-49.62l.47-150.63c0-17.92,4.08-34.1,12.26-48.56,8.17-14.61,19.45-26.36,33.82-35.24,14.38-8.88,30.37-13.32,47.97-13.32s33.87,4.32,47.86,12.96c14.15,8.65,25.42,20.31,33.83,35.01,8.4,14.7,12.61,31.08,12.61,49.15v22.16c0,1.26-.63,1.89-1.88,1.89h-54.22c-1.26,0-1.89-.62-1.89-1.89v-22.16c0-10.69-3.46-19.88-10.37-27.58-6.92-7.7-15.56-11.55-25.93-11.55-11.47,0-20.27,3.93-26.4,11.79-6.13,7.86-9.19,16.97-9.19,27.34v150.63c0,11.79,3.45,21.42,10.37,28.88,6.91,7.47,15.32,11.2,25.22,11.2s19.01-4.13,25.93-12.38c6.91-8.25,10.37-17.48,10.37-27.7v-22.39c0-1.26.63-1.89,1.89-1.89h54.69c1.25,0,1.89.63,1.89,1.89v22.39c0,18.07-4.24,34.58-12.73,49.5-8.64,14.77-20.03,26.6-34.18,35.48-14.15,8.88-30.1,13.32-47.86,13.32Z"/>
      <path class="cls-4" d="m2163.9,578.51h-54.45c-1.41,0-2.12-.79-2.12-2.36v-275.33h-62.7c-1.58,0-2.36-.79-2.36-2.36l.47-53.98c0-1.26.63-1.89,1.89-1.89h183.4c1.73,0,2.59.63,2.59,1.89v53.98c0,1.57-.63,2.36-1.89,2.36h-63.41l.47,275.33c0,1.57-.63,2.36-1.89,2.36Z"/>
      <path class="cls-4" d="m2351.32,438.96h-93.35c-1.58,0-2.36-.63-2.36-1.89v-52.57c0-1.25.79-1.88,2.36-1.88h93.35c1.57,0,2.36.63,2.36,1.88v52.57c0,1.26-.79,1.89-2.36,1.89Z"/>
      <path class="cls-4" d="m2383.84,576.15l59.87-331.68c.32-1.26,1.1-1.89,2.36-1.89h70.01c1.25,0,2.04.63,2.36,1.89l57.52,331.68c.16,1.57-.47,2.36-1.89,2.36h-53.51c-1.57,0-2.44-.79-2.59-2.36l-5.19-35.36h-65.77l-5.19,35.36c-.16,1.57-.94,2.36-2.36,2.36h-53.74c-1.26,0-1.89-.79-1.89-2.36Zm99.48-222.53l-2.83-17.92-2.12,17.92-21.69,135.55h46.44l-19.8-135.55Z"/>
      <path class="cls-4" d="m2658.71,578.51h-48.32c-2.52,0-3.77-1.1-3.77-3.3l-.47-328.85c0-2.51,1.25-3.77,3.77-3.77h43.61l81.56,190.24-2.36-186.46c0-2.51,1.42-3.77,4.24-3.77h47.86c1.89,0,2.83,1.26,2.83,3.77l.47,329.32c0,1.89-.79,2.83-2.36,2.83h-42.43l-83.69-177.74,3.53,173.97c0,2.51-1.49,3.77-4.48,3.77Z"/>
      <path class="cls-4" d="m2887.13,578.51h-54.69c-1.57,0-2.36-.79-2.36-2.36l.47-331.68c0-1.26.63-1.89,1.89-1.89h54.22c1.25,0,1.89.63,1.89,1.89l.47,331.68c0,1.57-.63,2.36-1.89,2.36Z"/>
      <path class="cls-4" d="m2988.03,578.51h-54.69c-1.26,0-1.88-.79-1.88-2.36l.94-331.68c0-1.26.62-1.89,1.88-1.89h58.94c1.25,0,2.36.63,3.3,1.89l44.08,63.65,43.85-63.65c.94-1.26,2.12-1.89,3.53-1.89h59.17c1.42,0,2.12.63,2.12,1.89l.94,331.68c0,1.57-.63,2.36-1.89,2.36h-54.69c-1.26,0-1.89-.79-1.89-2.36l-.47-246.34-50.69,73.55-50.21-73.55-.47,246.34c0,1.57-.63,2.36-1.89,2.36Z"/>
      <path class="cls-4" d="m3279.87,583.23c-17.13,0-32.93-4.4-47.38-13.2-14.3-8.8-25.81-20.54-34.54-35.24-8.72-14.69-13.08-30.84-13.08-48.44l.47-152.99c0-17.92,4.32-34.02,12.96-48.32,8.49-14.46,19.96-26.05,34.42-34.77,14.46-8.72,30.17-13.08,47.15-13.08s33.39,4.32,47.38,12.96c14.15,8.65,25.5,20.24,34.06,34.77,8.56,14.54,12.85,30.69,12.85,48.44l.47,152.99c0,17.6-4.24,33.71-12.73,48.32-8.64,14.77-20.12,26.56-34.42,35.36-14.3,8.8-30.17,13.2-47.62,13.2Zm0-58.22c9.74,0,18.23-3.97,25.46-11.91,7.23-7.93,10.84-16.86,10.84-26.76l-.47-152.99c0-10.69-3.38-19.72-10.14-27.11-6.76-7.38-15.32-11.08-25.69-11.08s-18.39,3.62-25.46,10.84c-7.07,7.23-10.61,16.35-10.61,27.34v152.99c0,10.53,3.53,19.61,10.61,27.23,7.07,7.63,15.56,11.43,25.46,11.43Z"/>
      <path class="cls-4" d="m3513.95,578.51h-54.45c-1.41,0-2.12-.79-2.12-2.36v-275.33h-62.7c-1.58,0-2.36-.79-2.36-2.36l.47-53.98c0-1.26.63-1.89,1.89-1.89h183.4c1.73,0,2.59.63,2.59,1.89v53.98c0,1.57-.63,2.36-1.89,2.36h-63.41l.47,275.33c0,1.57-.63,2.36-1.89,2.36Z"/>
      <path class="cls-4" d="m3661.05,578.51h-54.69c-1.57,0-2.36-.79-2.36-2.36l.47-331.68c0-1.26.63-1.89,1.89-1.89h54.22c1.25,0,1.89.63,1.89,1.89l.47,331.68c0,1.57-.63,2.36-1.89,2.36Z"/>
      <path class="cls-4" d="m3794.71,583.23c-17.13,0-32.93-4.4-47.38-13.2-14.3-8.8-25.81-20.54-34.54-35.24-8.72-14.69-13.08-30.84-13.08-48.44l.47-152.99c0-17.92,4.32-34.02,12.96-48.32,8.49-14.46,19.96-26.05,34.42-34.77,14.46-8.72,30.17-13.08,47.15-13.08s33.39,4.32,47.38,12.96c14.15,8.65,25.5,20.24,34.06,34.77,8.56,14.54,12.85,30.69,12.85,48.44l.47,152.99c0,17.6-4.24,33.71-12.73,48.32-8.64,14.77-20.12,26.56-34.42,35.36-14.3,8.8-30.17,13.2-47.62,13.2Zm0-58.22c9.74,0,18.23-3.97,25.46-11.91,7.23-7.93,10.84-16.86,10.84-26.76l-.47-152.99c0-10.69-3.38-19.72-10.14-27.11-6.76-7.38-15.32-11.08-25.69-11.08s-18.39,3.62-25.46,10.84c-7.07,7.23-10.61,16.35-10.61,27.34v152.99c0,10.53,3.53,19.61,10.61,27.23,7.07,7.63,15.56,11.43,25.46,11.43Z"/>
      <path class="cls-4" d="m3978.35,578.51h-48.32c-2.52,0-3.77-1.1-3.77-3.3l-.47-328.85c0-2.51,1.25-3.77,3.77-3.77h43.61l81.56,190.24-2.36-186.46c0-2.51,1.42-3.77,4.24-3.77h47.86c1.89,0,2.83,1.26,2.83,3.77l.47,329.32c0,1.89-.79,2.83-2.36,2.83h-42.43l-83.69-177.74,3.53,173.97c0,2.51-1.49,3.77-4.48,3.77Z"/>
    </g>
    <g>
      <path class="cls-1" d="m1240.34,779.75c-6.34,0-12.45-1-18.34-2.99-5.89-1.99-11.04-4.84-15.44-8.54-4.4-3.7-7.53-8.1-9.38-13.21l13.21-4.96c1.12,3.14,3.21,5.88,6.27,8.2,3.06,2.33,6.66,4.14,10.81,5.43,4.15,1.29,8.44,1.93,12.87,1.93,5.05,0,9.75-.83,14.1-2.48,4.35-1.65,7.87-3.97,10.56-6.94s4.04-6.45,4.04-10.43-1.4-7.45-4.21-10.06c-2.81-2.61-6.4-4.68-10.77-6.23-4.38-1.54-8.95-2.74-13.72-3.58-8.13-1.35-15.41-3.27-21.84-5.77-6.42-2.5-11.5-5.99-15.23-10.48-3.73-4.49-5.6-10.41-5.6-17.76,0-6.84,1.98-12.82,5.93-17.92,3.96-5.1,9.19-9.06,15.69-11.87,6.51-2.8,13.52-4.21,21.04-4.21,6.23,0,12.27.97,18.13,2.9,5.86,1.94,11.04,4.75,15.53,8.46,4.49,3.7,7.71,8.22,9.68,13.55l-13.38,4.88c-1.12-3.2-3.21-5.96-6.27-8.29-3.06-2.33-6.65-4.12-10.77-5.38s-8.43-1.89-12.92-1.89c-4.99-.06-9.65.76-13.97,2.44-4.32,1.68-7.82,4.01-10.52,6.99s-4.04,6.42-4.04,10.35c0,4.71,1.25,8.32,3.74,10.81,2.5,2.5,5.9,4.36,10.22,5.6,4.32,1.23,9.17,2.33,14.56,3.28,7.63,1.29,14.7,3.32,21.21,6.1,6.51,2.78,11.74,6.47,15.69,11.07,3.96,4.6,5.93,10.27,5.93,17s-1.98,12.82-5.93,17.92c-3.96,5.11-9.19,9.06-15.69,11.87-6.51,2.8-13.58,4.21-21.21,4.21Z"/>
      <path class="cls-1" d="m1360.16,755.35l12.62,6.82c-3.82,5.33-8.65,9.59-14.51,12.79-5.86,3.2-12.22,4.8-19.06,4.8-7.74,0-14.8-1.99-21.16-5.97-6.37-3.98-11.44-9.33-15.23-16.03-3.79-6.7-5.68-14.12-5.68-22.26,0-6.17,1.09-11.93,3.28-17.29,2.19-5.36,5.2-10.07,9.05-14.14,3.84-4.07,8.32-7.25,13.42-9.55,5.1-2.3,10.54-3.45,16.32-3.45,6.84,0,13.2,1.6,19.06,4.8,5.86,3.2,10.7,7.49,14.51,12.87l-12.62,6.82c-2.69-3.31-5.89-5.86-9.59-7.66s-7.49-2.69-11.36-2.69c-5.22,0-9.94,1.39-14.18,4.17-4.24,2.78-7.59,6.47-10.06,11.07-2.47,4.6-3.7,9.62-3.7,15.06s1.25,10.45,3.74,15.02c2.5,4.57,5.86,8.23,10.1,10.98,4.24,2.75,8.93,4.12,14.1,4.12,4.15,0,8.05-.95,11.7-2.86,3.65-1.91,6.73-4.38,9.26-7.4Z"/>
      <path class="cls-1" d="m1387.93,777.57v-84.15h14.14v10.52c2.97-3.93,6.73-7.05,11.28-9.38,4.54-2.33,9.48-3.49,14.81-3.49,3.25,0,6.4.42,9.43,1.26l-5.72,14.14c-2.3-.73-4.54-1.09-6.73-1.09-4.21,0-8.07,1.02-11.57,3.07-3.51,2.05-6.3,4.81-8.37,8.29-2.08,3.48-3.11,7.35-3.11,11.61v49.23h-14.14Z"/>
      <path class="cls-1" d="m1486.38,779.75c-7.74,0-14.8-1.99-21.16-5.97-6.37-3.98-11.44-9.33-15.23-16.03-3.79-6.7-5.68-14.12-5.68-22.26,0-6.17,1.09-11.93,3.28-17.29,2.19-5.36,5.2-10.07,9.05-14.14,3.84-4.07,8.32-7.25,13.42-9.55,5.1-2.3,10.54-3.45,16.32-3.45,7.74,0,14.8,1.99,21.16,5.98,6.37,3.98,11.44,9.34,15.23,16.07s5.68,14.19,5.68,22.38c0,6.12-1.09,11.84-3.28,17.17-2.19,5.33-5.2,10.03-9.05,14.1-3.84,4.07-8.3,7.25-13.38,9.55-5.08,2.3-10.53,3.45-16.37,3.45Zm0-14.14c5.27,0,10.03-1.39,14.26-4.16,4.23-2.78,7.57-6.45,10.01-11.02,2.44-4.57,3.66-9.55,3.66-14.94s-1.25-10.55-3.74-15.15c-2.5-4.6-5.85-8.27-10.06-11.02-4.21-2.75-8.92-4.12-14.14-4.12s-10.01,1.39-14.22,4.17c-4.21,2.78-7.55,6.47-10.01,11.07-2.47,4.6-3.7,9.62-3.7,15.06s1.26,10.7,3.79,15.27c2.52,4.57,5.92,8.19,10.18,10.86,4.26,2.66,8.92,4,13.97,4Z"/>
      <path class="cls-1" d="m1543.61,777.57v-126.22h14.14v126.22h-14.14Z"/>
      <path class="cls-1" d="m1577.94,777.57v-126.22h14.14v126.22h-14.14Z"/>
      <path class="cls-1" d="m1666.8,819.64h-14.14v-126.22h14.14v14.39c2.86-4.94,6.68-8.93,11.44-11.99,4.77-3.06,10.43-4.59,17-4.59,6.12,0,11.85,1.15,17.21,3.45,5.36,2.3,10.06,5.48,14.1,9.55s7.21,8.77,9.51,14.1c2.3,5.33,3.45,11.05,3.45,17.17s-1.15,11.87-3.45,17.25c-2.3,5.38-5.47,10.11-9.51,14.18-4.04,4.07-8.74,7.25-14.1,9.55-5.36,2.3-11.09,3.45-17.21,3.45-6.56,0-12.23-1.53-17-4.59-4.77-3.06-8.58-7.05-11.44-11.99v56.3Zm28.27-114.7c-5.44,0-10.21,1.38-14.31,4.12-4.1,2.75-7.25,6.42-9.47,11.02-2.22,4.6-3.32,9.73-3.32,15.4s1.11,10.74,3.32,15.4c2.22,4.66,5.36,8.36,9.43,11.11,4.07,2.75,8.85,4.12,14.35,4.12s10.43-1.36,14.98-4.08c4.54-2.72,8.19-6.4,10.94-11.02,2.75-4.63,4.12-9.8,4.12-15.53s-1.35-10.73-4.04-15.36c-2.69-4.63-6.31-8.32-10.85-11.07-4.54-2.75-9.59-4.12-15.15-4.12Z"/>
      <path class="cls-1" d="m1791.67,779.75c-7.74,0-14.8-1.99-21.16-5.97-6.37-3.98-11.44-9.33-15.23-16.03-3.79-6.7-5.68-14.12-5.68-22.26,0-6.17,1.09-11.93,3.28-17.29,2.19-5.36,5.2-10.07,9.05-14.14,3.84-4.07,8.32-7.25,13.42-9.55,5.1-2.3,10.54-3.45,16.32-3.45,7.74,0,14.8,1.99,21.16,5.98,6.37,3.98,11.44,9.34,15.23,16.07,3.79,6.73,5.68,14.19,5.68,22.38,0,6.12-1.09,11.84-3.28,17.17-2.19,5.33-5.2,10.03-9.05,14.1-3.84,4.07-8.3,7.25-13.38,9.55-5.08,2.3-10.53,3.45-16.37,3.45Zm0-14.14c5.27,0,10.03-1.39,14.26-4.16,4.23-2.78,7.57-6.45,10.01-11.02,2.44-4.57,3.66-9.55,3.66-14.94s-1.25-10.55-3.74-15.15c-2.5-4.6-5.85-8.27-10.06-11.02-4.21-2.75-8.92-4.12-14.14-4.12s-10.01,1.39-14.22,4.17-7.55,6.47-10.01,11.07c-2.47,4.6-3.7,9.62-3.7,15.06s1.26,10.7,3.79,15.27c2.52,4.57,5.92,8.19,10.18,10.86,4.26,2.66,8.92,4,13.97,4Z"/>
      <path class="cls-1" d="m1874.56,779.16c-4.54-.17-8.96-1.02-13.25-2.57-4.29-1.54-8.05-3.65-11.28-6.31-3.23-2.66-5.57-5.74-7.03-9.21l12.12-5.22c.84,1.91,2.36,3.7,4.54,5.39,2.19,1.68,4.71,3.03,7.57,4.04,2.86,1.01,5.75,1.51,8.67,1.51,3.08,0,5.97-.47,8.67-1.43s4.89-2.37,6.61-4.25c1.71-1.88,2.57-4.14,2.57-6.77,0-2.8-.94-5.01-2.82-6.6-1.88-1.6-4.24-2.86-7.07-3.79-2.83-.93-5.71-1.81-8.62-2.65-5.78-1.46-10.94-3.21-15.48-5.26-4.54-2.05-8.12-4.66-10.73-7.83-2.61-3.17-3.91-7.22-3.91-12.16,0-5.22,1.44-9.73,4.33-13.55,2.89-3.81,6.69-6.76,11.4-8.84,4.71-2.07,9.76-3.11,15.15-3.11,6.79,0,12.99,1.46,18.6,4.37,5.61,2.92,9.79,6.87,12.54,11.87l-11.36,6.65c-.95-2.02-2.41-3.8-4.37-5.34-1.97-1.54-4.21-2.76-6.73-3.66s-5.11-1.37-7.74-1.43c-3.25-.11-6.3.31-9.13,1.26-2.83.95-5.11,2.4-6.82,4.33-1.71,1.94-2.57,4.33-2.57,7.2s.91,4.94,2.73,6.4,4.21,2.62,7.15,3.49c2.94.87,6.16,1.86,9.63,2.99,5.1,1.63,9.87,3.51,14.31,5.64,4.43,2.13,8.01,4.8,10.73,7.99,2.72,3.2,4.05,7.15,4,11.86,0,5.16-1.54,9.67-4.63,13.51-3.09,3.84-7.08,6.77-11.99,8.79-4.91,2.02-10.17,2.92-15.78,2.69Z"/>
      <path class="cls-1" d="m1928.66,679.7c-2.24,0-4.12-.73-5.64-2.19-1.51-1.46-2.27-3.28-2.27-5.47s.76-4.01,2.27-5.47,3.37-2.19,5.55-2.19,4.04.73,5.55,2.19,2.27,3.28,2.27,5.47-.74,4.01-2.23,5.47c-1.49,1.46-3.32,2.19-5.51,2.19Zm-7.24,13.72h14.14v84.15h-14.14v-84.15Z"/>
      <path class="cls-1" d="m1999.35,707.55h-19.1l-.08,70.01h-14.14l.08-70.01h-14.47v-14.14h14.47l-.08-26.42h14.14l.08,26.42h19.1v14.14Z"/>
      <path class="cls-1" d="m2021.65,679.7c-2.24,0-4.12-.73-5.64-2.19-1.51-1.46-2.27-3.28-2.27-5.47s.76-4.01,2.27-5.47,3.37-2.19,5.55-2.19,4.04.73,5.55,2.19,2.27,3.28,2.27,5.47-.74,4.01-2.23,5.47c-1.49,1.46-3.32,2.19-5.51,2.19Zm-7.24,13.72h14.14v84.15h-14.14v-84.15Z"/>
      <path class="cls-1" d="m2085.77,779.75c-7.74,0-14.8-1.99-21.16-5.97-6.37-3.98-11.44-9.33-15.23-16.03-3.79-6.7-5.68-14.12-5.68-22.26,0-6.17,1.09-11.93,3.28-17.29,2.19-5.36,5.2-10.07,9.05-14.14,3.84-4.07,8.32-7.25,13.42-9.55,5.1-2.3,10.54-3.45,16.32-3.45,7.74,0,14.8,1.99,21.16,5.98,6.37,3.98,11.44,9.34,15.23,16.07,3.79,6.73,5.68,14.19,5.68,22.38,0,6.12-1.09,11.84-3.28,17.17-2.19,5.33-5.2,10.03-9.05,14.1-3.84,4.07-8.3,7.25-13.38,9.55-5.08,2.3-10.53,3.45-16.37,3.45Zm0-14.14c5.27,0,10.03-1.39,14.26-4.16,4.23-2.78,7.57-6.45,10.01-11.02,2.44-4.57,3.66-9.55,3.66-14.94s-1.25-10.55-3.74-15.15c-2.5-4.6-5.85-8.27-10.06-11.02-4.21-2.75-8.92-4.12-14.14-4.12s-10.01,1.39-14.22,4.17c-4.21,2.78-7.55,6.47-10.01,11.07-2.47,4.6-3.7,9.62-3.7,15.06s1.26,10.7,3.79,15.27c2.52,4.57,5.92,8.19,10.18,10.86,4.26,2.66,8.92,4,13.97,4Z"/>
      <path class="cls-1" d="m2217.37,725.22v52.34h-14.14v-49.23c0-4.26-1.04-8.13-3.11-11.61-2.08-3.48-4.85-6.24-8.33-8.29-3.48-2.05-7.35-3.07-11.61-3.07s-8.07,1.02-11.57,3.07c-3.51,2.05-6.3,4.81-8.37,8.29-2.08,3.48-3.11,7.35-3.11,11.61v49.23h-14.14v-84.15h14.14v10.52c2.97-3.93,6.73-7.05,11.28-9.38,4.54-2.33,9.48-3.49,14.81-3.49,6.28,0,12.02,1.53,17.21,4.59,5.19,3.06,9.31,7.17,12.37,12.33,3.06,5.16,4.59,10.91,4.59,17.25Z"/>
      <path class="cls-1" d="m2342.84,777.57h-16.24l-22.38-38.62-15.48,18.51v20.11h-14.14v-126.22h14.14v84.15l35.26-42.07h18.43l-28.61,34.08,29.03,50.07Z"/>
      <path class="cls-1" d="m2396.27,779.75c-7.74,0-14.8-1.99-21.16-5.97-6.37-3.98-11.44-9.33-15.23-16.03-3.79-6.7-5.68-14.12-5.68-22.26,0-6.17,1.09-11.93,3.28-17.29,2.19-5.36,5.2-10.07,9.05-14.14,3.84-4.07,8.32-7.25,13.42-9.55,5.1-2.3,10.54-3.45,16.32-3.45,6.34,0,12.16,1.28,17.46,3.83,5.3,2.55,9.85,6.1,13.63,10.65,3.79,4.54,6.62,9.82,8.5,15.82,1.88,6,2.57,12.43,2.06,19.27h-68.67c.67,4.77,2.24,9.02,4.71,12.75,2.47,3.73,5.62,6.69,9.47,8.88,3.84,2.19,8.12,3.31,12.83,3.37,5.05,0,9.62-1.3,13.72-3.91,4.09-2.61,7.4-6.19,9.93-10.73l14.39,3.37c-3.37,7.46-8.44,13.56-15.23,18.3-6.79,4.74-14.39,7.11-22.8,7.11Zm-27.43-50.24h54.87c-.45-4.71-1.96-9.02-4.54-12.92-2.58-3.9-5.86-7.03-9.85-9.38-3.98-2.36-8.33-3.53-13.04-3.53s-9.03,1.15-12.96,3.45c-3.93,2.3-7.17,5.4-9.72,9.3-2.55,3.9-4.14,8.26-4.76,13.09Z"/>
      <path class="cls-1" d="m2510.96,693.42h14.98l-46.03,126.22h-14.98l15.23-42.07-30.21-84.15h15.48l21.79,64.71,23.73-64.71Z"/>
      <path class="cls-1" d="m2561.87,672.63v20.78h24.66v14.14h-24.66v70.01h-14.14v-70.01h-10.85v-14.14h10.85v-20.78c0-4.32,1.05-8.23,3.16-11.74,2.1-3.5,4.94-6.31,8.5-8.41,3.56-2.1,7.47-3.16,11.74-3.16,3.14,0,6.2.63,9.17,1.89s5.61,3.13,7.91,5.59l-10.1,10.01c-.79-1.06-1.81-1.89-3.07-2.48-1.26-.59-2.57-.88-3.91-.88-2.52,0-4.7.9-6.52,2.69-1.82,1.8-2.74,3.96-2.74,6.48Z"/>
      <path class="cls-1" d="m2600.33,777.57v-84.15h14.14v10.52c2.97-3.93,6.73-7.05,11.28-9.38,4.54-2.33,9.48-3.49,14.81-3.49,3.25,0,6.4.42,9.43,1.26l-5.72,14.14c-2.3-.73-4.54-1.09-6.73-1.09-4.21,0-8.07,1.02-11.57,3.07-3.51,2.05-6.3,4.81-8.37,8.29-2.08,3.48-3.11,7.35-3.11,11.61v49.23h-14.14Z"/>
      <path class="cls-1" d="m2729.41,693.42h14.14v84.15h-14.14l-.59-14.22c-2.64,4.88-6.27,8.84-10.9,11.87-4.63,3.03-10.14,4.54-16.54,4.54s-11.95-1.17-17.34-3.49c-5.38-2.33-10.14-5.55-14.26-9.68-4.12-4.12-7.34-8.88-9.64-14.26-2.3-5.39-3.45-11.19-3.45-17.42s1.12-11.67,3.37-17c2.24-5.33,5.37-10,9.38-14.01,4.01-4.01,8.65-7.15,13.93-9.42,5.27-2.27,10.94-3.41,17-3.41,6.62,0,12.42,1.56,17.42,4.67,4.99,3.11,9.03,7.14,12.12,12.07l-.5-14.39Zm-28.27,72.62c5.55,0,10.36-1.36,14.43-4.08,4.07-2.72,7.21-6.41,9.42-11.07,2.21-4.66,3.32-9.79,3.32-15.4s-1.12-10.9-3.37-15.53c-2.24-4.63-5.4-8.3-9.47-11.02-4.07-2.72-8.85-4.08-14.35-4.08s-10.6,1.38-15.15,4.12c-4.54,2.75-8.15,6.44-10.81,11.07-2.66,4.63-4,9.78-4,15.44s1.37,10.81,4.12,15.44c2.75,4.63,6.4,8.3,10.94,11.02,4.54,2.72,9.51,4.08,14.89,4.08Z"/>
      <path class="cls-1" d="m2760.37,777.57v-84.15h14.14v10.52c2.97-3.93,6.72-7.05,11.23-9.38,4.52-2.33,9.44-3.49,14.77-3.49,6.23,0,11.92,1.51,17.08,4.54,5.16,3.03,9.23,7.04,12.2,12.03,2.97-4.99,7.03-9,12.16-12.03,5.13-3.03,10.78-4.54,16.95-4.54s12.09,1.53,17.25,4.59c5.16,3.06,9.27,7.17,12.33,12.33,3.06,5.16,4.59,10.91,4.59,17.25v52.34h-14.14v-48.97c0-4.15-1.01-7.99-3.03-11.53-2.02-3.54-4.74-6.37-8.16-8.5-3.42-2.13-7.21-3.2-11.36-3.2s-7.94,1-11.36,2.99c-3.42,1.99-6.14,4.74-8.16,8.25-2.02,3.51-3.03,7.5-3.03,11.99v48.97h-14.14v-48.97c0-4.49-1.01-8.49-3.03-11.99-2.02-3.5-4.76-6.25-8.21-8.25-3.45-1.99-7.25-2.99-11.4-2.99s-7.87,1.07-11.32,3.2c-3.45,2.13-6.18,4.96-8.21,8.5-2.02,3.53-3.03,7.38-3.03,11.53v48.97h-14.14Z"/>
      <path class="cls-1" d="m2946.93,779.75c-7.74,0-14.8-1.99-21.16-5.97-6.37-3.98-11.44-9.33-15.23-16.03-3.79-6.7-5.68-14.12-5.68-22.26,0-6.17,1.09-11.93,3.28-17.29,2.19-5.36,5.2-10.07,9.05-14.14,3.84-4.07,8.32-7.25,13.42-9.55,5.1-2.3,10.54-3.45,16.32-3.45,6.34,0,12.16,1.28,17.46,3.83,5.3,2.55,9.85,6.1,13.63,10.65,3.79,4.54,6.62,9.82,8.5,15.82,1.88,6,2.57,12.43,2.06,19.27h-68.67c.67,4.77,2.24,9.02,4.71,12.75,2.47,3.73,5.62,6.69,9.47,8.88,3.84,2.19,8.12,3.31,12.83,3.37,5.05,0,9.62-1.3,13.72-3.91,4.09-2.61,7.4-6.19,9.93-10.73l14.39,3.37c-3.37,7.46-8.44,13.56-15.23,18.3-6.79,4.74-14.39,7.11-22.8,7.11Zm-27.43-50.24h54.87c-.45-4.71-1.96-9.02-4.54-12.92-2.58-3.9-5.86-7.03-9.85-9.38-3.98-2.36-8.33-3.53-13.04-3.53s-9.03,1.15-12.96,3.45c-3.93,2.3-7.17,5.4-9.72,9.3-2.55,3.9-4.14,8.26-4.76,13.09Z"/>
      <path class="cls-1" d="m3029.65,779.16c-4.54-.17-8.96-1.02-13.25-2.57-4.29-1.54-8.05-3.65-11.28-6.31-3.23-2.66-5.57-5.74-7.03-9.21l12.12-5.22c.84,1.91,2.36,3.7,4.54,5.39,2.19,1.68,4.71,3.03,7.57,4.04,2.86,1.01,5.75,1.51,8.67,1.51,3.08,0,5.97-.47,8.67-1.43s4.89-2.37,6.61-4.25c1.71-1.88,2.57-4.14,2.57-6.77,0-2.8-.94-5.01-2.82-6.6-1.88-1.6-4.24-2.86-7.07-3.79-2.83-.93-5.71-1.81-8.62-2.65-5.78-1.46-10.94-3.21-15.48-5.26-4.54-2.05-8.12-4.66-10.73-7.83s-3.91-7.22-3.91-12.16c0-5.22,1.44-9.73,4.33-13.55,2.89-3.81,6.69-6.76,11.4-8.84,4.71-2.07,9.76-3.11,15.15-3.11,6.79,0,12.99,1.46,18.6,4.37,5.61,2.92,9.79,6.87,12.54,11.87l-11.36,6.65c-.95-2.02-2.41-3.8-4.37-5.34-1.97-1.54-4.21-2.76-6.73-3.66s-5.11-1.37-7.74-1.43c-3.25-.11-6.3.31-9.13,1.26-2.83.95-5.11,2.4-6.82,4.33-1.71,1.94-2.57,4.33-2.57,7.2s.91,4.94,2.73,6.4c1.82,1.46,4.21,2.62,7.15,3.49,2.94.87,6.16,1.86,9.63,2.99,5.1,1.63,9.87,3.51,14.31,5.64,4.43,2.13,8.01,4.8,10.73,7.99,2.72,3.2,4.05,7.15,4,11.86,0,5.16-1.54,9.67-4.63,13.51-3.09,3.84-7.08,6.77-11.99,8.79-4.91,2.02-10.17,2.92-15.78,2.69Z"/>
    </g>
  </g>
</svg>