<?xml version="1.0" encoding="UTF-8"?>
<svg id="Layer_1" data-name="Layer 1" xmlns="http://www.w3.org/2000/svg" viewBox="0 0 1000 1000">
  <defs>
    <style>
      .cls-1 {
        fill: #588157;
      }

      .cls-1, .cls-2, .cls-3, .cls-4 {
        stroke-width: 0px;
      }

      .cls-2 {
        fill: #dad7cd;
      }

      .cls-3 {
        fill: #a3b18a;
      }

      .cls-4 {
        fill: #ebbc4e;
      }
    </style>
  </defs>
  <path class="cls-2" d="m846.98,590.1l-80.72-133.49,80.61-133.6c3.82-6.29,3.82-14.03,0-20.32l-86.79-143.71c-3.59-5.84-9.88-9.54-16.84-9.54h-143.71c-6.85,0-13.25,3.59-16.84,9.54l-81.06,134.17h-132.59c-6.85,0-13.25,3.59-16.84,9.54l-81.06,134.17h-132.59c-6.85,0-13.25,3.59-16.84,9.54l-86.79,143.71c-3.82,6.29-3.82,14.03,0,20.32l86.79,143.71c3.59,5.84,9.88,9.54,16.84,9.54h132.71l59.74,99.02v.49l20.87,34.54c2.28,3.78,5.69,6.59,9.63,8.15,2.34.97,4.89,1.5,7.55,1.5h109.69v-.11h33.68c6.96,0,13.25-3.7,16.84-9.54l54.64-90.48h.25l26.28-43.57h80.72v-.13h52.09c6.96,0,13.25-3.7,16.84-9.54l86.79-143.71c3.79-6.24,3.81-13.91.08-20.17h.04Z"/>
  <path class="cls-3" d="m886.38,550.69l-80.72-133.49,80.61-133.6c3.82-6.29,3.82-14.03,0-20.32l-86.79-143.71c-3.59-5.84-9.88-9.54-16.84-9.54h-143.71c-6.85,0-13.25,3.59-16.84,9.54l-81.06,134.17h-132.59c-6.85,0-13.25,3.59-16.84,9.54l-81.06,134.17h-132.59c-6.85,0-13.25,3.59-16.84,9.54l-86.79,143.71c-3.82,6.29-3.82,14.03,0,20.32l86.79,143.71c3.59,5.84,9.88,9.54,16.84,9.54h132.71l59.74,99.02v.49l20.87,34.54c2.28,3.78,5.69,6.59,9.63,8.15,2.34.97,4.89,1.5,7.55,1.5h109.69v-.11h33.68c6.96,0,13.25-3.7,16.84-9.54l54.64-90.48h.25l26.28-43.57h80.72v-.13h52.09c6.96,0,13.25-3.7,16.84-9.54l86.79-143.71c3.79-6.24,3.81-13.91.08-20.17h.04Z"/>
  <path class="cls-4" d="m870.54,335.58l55.14-91.39c3.52-5.8,3.75-12.83.78-18.82l22.67-39.68-83.39-129.95h-153.62v14.87h-33.77c-6.85,0-13.25,3.59-16.84,9.54l-81.06,134.17h-132.59c-6.85,0-13.25,3.59-16.84,9.54l-81.06,134.17h-132.59c-6.85,0-13.25,3.59-16.84,9.54l-86.79,143.71c-3.82,6.29-3.82,14.03,0,20.32l86.79,143.71c3.59,5.84,9.88,9.54,16.84,9.54h132.71l59.74,99.02v.49l20.87,34.54c2.28,3.78,5.69,6.59,9.63,8.15,2.34.97,4.89,1.5,7.55,1.5h109.69v-.11h25.42l13.58,107.77,48.28,7.32,9.39-36.15,8.26-178.56.24-.4h.25l22.61-37.49,4.18-6.09h80.21v-.13h15.49l4.38,167.76,40.79,15.49,32.19-26.85-1.46-193.12,64.33-116.53h0s0-.01,0-.02l23.44-42.46-78.59-153.42Z"/>
  <path class="cls-1" d="m965.2,471.88l-80.72-133.49,80.61-133.6c3.82-6.29,3.82-14.03,0-20.32l-86.79-143.71c-3.59-5.84-9.88-9.54-16.84-9.54h-143.71c-6.85,0-13.25,3.59-16.84,9.54l-81.06,134.17h-132.59c-6.85,0-13.25,3.59-16.84,9.54l-81.06,134.17h-132.59c-6.85,0-13.25,3.59-16.84,9.54l-86.79,143.71c-3.82,6.29-3.82,14.03,0,20.32l86.79,143.71c3.59,5.84,9.88,9.54,16.84,9.54h132.71l80.95,134.17c3.59,5.95,9.88,9.54,16.84,9.54h70.28v118.22c0,33.91,27.62,61.41,61.41,61.41,16.17,0,32.11-6.51,43.45-17.96,11.56-11.56,17.96-27.06,17.96-43.45v-181.88l48.28-80.05h41.09v190.75c0,30.65,24.92,55.57,55.57,55.57,15.04,0,29.08-5.84,39.3-16.28,10.55-10.55,16.28-24.48,16.28-39.3v-204.9l83.98-138.99c3.82-6.29,3.82-14.03,0-20.32l.34-.11Zm-123.27,153.93v210.4c0,4.27-1.68,8.42-4.94,11.68-2.92,3.03-6.96,4.6-11.34,4.6-8.98,0-16.28-7.3-16.28-16.28v-210.4c0-10.89-8.76-19.65-19.65-19.65h-60.74l-74.89-124.06,74.89-124.06h121.59l75,124.06-80.72,133.6c-1.91,3.03-2.81,6.62-2.81,10.1h-.11Zm-200.63,94.2v187.27c0,5.95-2.25,11.56-6.51,15.72-4.15,4.15-9.88,6.51-15.72,6.51-12.24,0-22.12-9.88-22.12-22.12v-137.87c0-10.89-8.76-19.65-19.65-19.65h-78.82l-74.89-124.06,74.89-124.06h121.48l74.89,124.06-50.75,84.09c-1.91,3.03-2.81,6.62-2.81,10.1h0ZM850.57,70.5l74.89,124.06-74.89,124.06h-121.48l-74.89-124.06,74.89-124.06s121.48,0,121.48,0Zm-230.49,143.71l64,106.1,10.78,17.96-74.89,124.06h-121.48l-74.89-124.06,74.89-124.06h121.59Zm-230.49,143.71l74.89,124.06-74.89,124.06h-121.48l-74.89-124.06,74.89-124.06h121.48Z"/>
</svg>